<?xml version="1.0" encoding="utf-8"?>
<!-- Generator: Adobe Illustrator 26.2.1, SVG Export Plug-In . SVG Version: 6.00 Build 0)  -->
<svg version="1.1" id="Layer_1" xmlns="http://www.w3.org/2000/svg" xmlns:xlink="http://www.w3.org/1999/xlink" x="0px" y="0px"
	 viewBox="0 0 100.7 62" style="enable-background:new 0 0 100.7 62;" xml:space="preserve">
<style type="text/css">
	.st0{fill:#333333;}
	.st1{fill:#4A6EB5;}
</style>
<g>
	<rect x="34" y="12" class="st0" width="5.8" height="17"/>
	<path class="st0" d="M36.9,10c1.2,0,2-0.2,2.5-0.6c0.5-0.5,0.8-1.2,0.8-2.1c0-1-0.3-1.7-0.8-2.1c-0.5-0.5-1.4-0.7-2.5-0.7
		c-1.2,0-2,0.2-2.6,0.7c-0.5,0.4-0.8,1.1-0.8,2.1c0,1,0.3,1.7,0.8,2.1C34.8,9.8,35.7,10,36.9,10z"/>
	<path class="st0" d="M46.6,28.3c1.4,0.7,3,1,4.9,1c1.5,0,2.8-0.2,4-0.7c1.1-0.5,2-1.1,2.7-1.8c0.7-0.8,1.1-1.7,1.3-2.7l-5.2-1.7
		c-0.1,0.6-0.2,1.1-0.5,1.5c-0.2,0.4-0.6,0.7-1,1c-0.4,0.2-0.8,0.3-1.4,0.3c-0.7,0-1.3-0.1-1.8-0.4c-0.5-0.3-0.9-0.8-1.2-1.5
		c-0.3-0.7-0.4-1.6-0.4-2.7s0.1-2,0.4-2.7c0.2-0.7,0.6-1.2,1.1-1.6c0.5-0.3,1.1-0.5,1.8-0.5c0.8,0,1.4,0.2,1.8,0.7
		c0.4,0.5,0.7,1.2,0.9,2.2l5.3-1.8c-0.2-0.9-0.6-1.8-1.2-2.6c-0.6-0.8-1.5-1.5-2.7-1.9c-1.1-0.5-2.6-0.7-4.3-0.7
		c-1.8,0-3.3,0.4-4.7,1.1c-1.3,0.7-2.4,1.7-3.1,3c-0.7,1.3-1.1,2.9-1.1,4.8s0.4,3.5,1.1,4.8C44.2,26.6,45.2,27.6,46.6,28.3z"/>
	<polygon class="st0" points="17.3,22.7 20.1,19.4 25.6,29 32.3,29 24.2,15.7 31.8,6.6 25.4,6.6 17.3,16.5 17.3,6.6 11.5,6.6 
		11.5,29 17.3,29 	"/>
	<polygon class="st0" points="74.2,18.7 80.5,12 74,12 67.6,19.1 67.6,4.8 61.8,4.8 61.8,29 67.6,29 67.6,25.1 70.3,22 74.4,29 
		80.8,29 	"/>
	<polygon class="st0" points="87.8,24.6 100.3,10.8 100.3,6.6 81.7,6.6 81.7,11 94,11 81.4,24.8 81.4,29 100.7,29 100.7,24.6 	"/>
	<path class="st0" d="M67.9,35.6c-1.6-0.9-3.6-1.4-5.8-1.4c-2.3,0-4.2,0.5-5.9,1.4c-1.7,0.9-2.9,2.2-3.8,3.9
		c-0.9,1.7-1.3,3.8-1.3,6.2s0.4,4.5,1.3,6.2c0.9,1.7,2.2,3,3.8,4c1.7,0.9,3.6,1.4,5.9,1.4c2.3,0,4.2-0.5,5.8-1.4
		c1.7-0.9,2.9-2.3,3.8-4c0.9-1.7,1.3-3.8,1.3-6.2s-0.4-4.5-1.3-6.2C70.8,37.8,69.6,36.5,67.9,35.6z M66.5,49.6c-0.4,1-1,1.8-1.7,2.3
		c-0.7,0.5-1.6,0.8-2.7,0.8c-1.1,0-2-0.3-2.8-0.8c-0.7-0.5-1.3-1.3-1.7-2.3c-0.4-1-0.6-2.3-0.6-3.8c0-1.5,0.2-2.8,0.6-3.8
		c0.4-1,1-1.8,1.7-2.3s1.7-0.8,2.8-0.8c1.1,0,2,0.3,2.7,0.8c0.7,0.5,1.3,1.3,1.7,2.3c0.4,1,0.6,2.3,0.6,3.8
		C67.1,47.3,66.9,48.6,66.5,49.6z"/>
	<polygon class="st0" points="51.4,34.6 44.9,34.6 36.9,44.5 36.9,34.6 31.1,34.6 31.1,57 36.9,57 36.9,50.7 39.6,47.4 45.2,57 
		51.8,57 43.8,43.7 	"/>
	<path class="st0" d="M91.4,35.4c-1.3-0.6-2.9-0.9-4.7-0.9H76.4V57h5.8v-7.5h4.5c1.8,0,3.4-0.3,4.7-0.9c1.3-0.6,2.3-1.4,3-2.5
		c0.7-1.1,1-2.5,1-4c0-1.6-0.3-2.9-1-4C93.7,36.9,92.7,36,91.4,35.4z M88.5,44.4c-0.6,0.5-1.5,0.7-2.8,0.7h-3.5v-6.2h3.5
		c1.2,0,2.1,0.3,2.8,0.8c0.6,0.5,1,1.3,1,2.3C89.5,43.1,89.2,43.9,88.5,44.4z"/>
	<path class="st0" d="M21.1,52.6c-0.6,0-1.1,0-1.6,0c-0.5,0-1,0-1.4,0.1v0c2-1.2,3.7-2.3,5.1-3.5c1.4-1.2,2.5-2.4,3.3-3.6
		c0.7-1.3,1.1-2.6,1.1-4.1c0-0.9-0.2-1.7-0.5-2.6c-0.3-0.9-0.8-1.6-1.5-2.3c-0.7-0.7-1.6-1.3-2.7-1.7c-1.1-0.4-2.3-0.6-3.8-0.6
		c-1.7,0-3.2,0.3-4.5,0.9c-1.3,0.6-2.4,1.4-3.1,2.5c-0.7,1.1-1.1,2.5-1.2,4.2l5,1.5c0-1.5,0.4-2.6,1-3.4c0.6-0.8,1.4-1.2,2.5-1.2
		c1,0,1.7,0.3,2.2,0.9c0.5,0.6,0.8,1.3,0.8,2.1c0,0.8-0.2,1.6-0.6,2.4c-0.4,0.8-1,1.7-1.9,2.7c-0.8,0.9-1.9,1.9-3.3,3
		s-3,2.2-4.9,3.4V57h16.8v-4.5h-5.3C22.1,52.5,21.6,52.6,21.1,52.6z"/>
</g>
<rect class="st1" width="5" height="62"/>
</svg>
